<svg width="150" height="268" viewBox="0 0 150 268" fill="none" xmlns="http://www.w3.org/2000/svg">
<path d="M114.277 46.5821C114.277 40.7399 109.538 36 103.695 36H32.3045C26.4624 36 21.7225 40.7399 21.7225 46.5821V69.2934H114.278L114.277 46.5821Z" fill="white"/>
<path d="M120.078 109.446C110.689 104.749 107.553 93.7849 107.553 84.3896C107.553 83.782 107.553 82.885 107.553 81.7334C107.553 81.3094 107.553 80.9138 107.553 80.4052H28.4476C28.4476 80.9138 28.4476 81.3094 28.4476 81.7334C28.4476 81.875 28.4476 82.6237 28.4476 84.3896C28.4476 93.7849 25.3109 104.749 15.9228 109.446C4.70465 115.049 0 123.398 0 143.341C0 150.454 0 216.929 0 228.323C0 247.545 13.528 267.48 40.5909 267.48H95.4091C122.472 267.48 136 247.545 136 228.323C136 216.929 136 150.455 136 143.341C136 123.399 131.295 115.049 120.078 109.446ZM113.734 219.881H22.2664V145.206H113.734V219.881H113.734Z" fill="white"/>
<path d="M60.1731 210.931H75.8202V192.352H94.392V176.719H75.8202V158.14H60.1731V176.719H41.6082V192.352H60.1731V210.931Z" fill="white"/>
<path fill-rule="evenodd" clip-rule="evenodd" d="M133.8 12.6C133.8 11.6059 132.994 10.8 132 10.8C131.006 10.8 130.2 11.6059 130.2 12.6V16.2H126.6C125.606 16.2 124.8 17.0059 124.8 18C124.8 18.9941 125.606 19.8 126.6 19.8H130.2V23.4C130.2 24.3941 131.006 25.2 132 25.2C132.994 25.2 133.8 24.3941 133.8 23.4V19.8H137.4C138.394 19.8 139.2 18.9941 139.2 18C139.2 17.0059 138.394 16.2 137.4 16.2H133.8V12.6ZM114 18C114 8.05887 122.059 0 132 0C141.941 0 150 8.05887 150 18C150 27.941 141.941 36 132 36C122.059 36 114 27.941 114 18Z" fill="white"/>
</svg>
