<svg width="37" height="26" viewBox="0 0 37 26" fill="none" xmlns="http://www.w3.org/2000/svg">
<path d="M19.8189 13.4831L17.9151 13.2769C17.6546 13.2487 17.4343 13.0774 17.3343 12.8353C17.3331 12.8325 17.3319 12.8295 17.3307 12.8267C17.2304 12.5847 17.2649 12.3079 17.4292 12.1038L18.6296 10.6118C18.856 10.3305 18.834 9.92383 18.5787 9.6685L16.3315 7.42131C16.0762 7.16598 15.6696 7.14402 15.3882 7.37038L13.8956 8.57134C13.692 8.73517 13.416 8.76994 13.1743 8.67049C13.1717 8.66942 13.169 8.66835 13.1664 8.66728C12.9234 8.56755 12.7515 8.34691 12.7233 8.08579L12.517 6.18107C12.4782 5.82208 12.1751 5.55008 11.814 5.55008H8.63603C8.27496 5.55008 7.97192 5.82208 7.93307 6.18107L7.72681 8.08579C7.69856 8.34684 7.52657 8.56755 7.28362 8.66728C7.28097 8.66835 7.27832 8.66942 7.27575 8.67049C7.03408 8.77001 6.75807 8.73517 6.55447 8.57134L5.06169 7.37038C4.78039 7.14402 4.37375 7.16598 4.11849 7.42131L1.8713 9.6685C1.61597 9.92383 1.59401 10.3305 1.82037 10.6118L3.02083 12.1038C3.18509 12.3079 3.21964 12.5847 3.11927 12.8267C3.11805 12.8295 3.11691 12.8325 3.11569 12.8353C3.01561 13.0774 2.7954 13.2487 2.53492 13.2769L0.630994 13.4831C0.272 13.5219 0 13.825 0 14.186V17.364C0 17.7251 0.272 18.0282 0.630994 18.067L2.53485 18.2731C2.79533 18.3013 3.01561 18.4726 3.11562 18.7147C3.11684 18.7175 3.11798 18.7205 3.1192 18.7233C3.21957 18.9654 3.18502 19.2421 3.02076 19.4463L1.8203 20.9383C1.59394 21.2196 1.6159 21.6263 1.87123 21.8816L4.11842 24.1288C4.37375 24.3841 4.78039 24.4061 5.06169 24.1797L6.55433 22.9787C6.75793 22.8148 7.03394 22.7801 7.2756 22.8796C7.27825 22.8807 7.2809 22.8817 7.28355 22.8828C7.5265 22.9825 7.69841 23.2032 7.72667 23.4643L7.93293 25.369C7.97177 25.728 8.27482 26 8.63589 26H11.8139C12.175 26 12.478 25.728 12.5169 25.369L12.7231 23.4643C12.7514 23.2032 12.9233 22.9825 13.1662 22.8828C13.1689 22.8817 13.1715 22.8807 13.1741 22.8796C13.4158 22.7801 13.6918 22.8148 13.8955 22.9787L15.3881 24.1797C15.6694 24.4061 16.076 24.3841 16.3314 24.1288L18.5786 21.8816C18.8339 21.6263 18.8558 21.2196 18.6295 20.9383L17.429 19.4463C17.2648 19.2422 17.2302 18.9654 17.3306 18.7233C17.3317 18.7205 17.3329 18.7176 17.3342 18.7147C17.4342 18.4726 17.6545 18.3013 17.9149 18.2731L19.8188 18.067C20.1777 18.0281 20.4498 17.725 20.4498 17.364V14.186C20.4499 13.825 20.1779 13.5219 19.8189 13.4831ZM10.225 18.9628C8.46441 18.9628 7.03716 17.5356 7.03716 15.775C7.03716 14.0145 8.46441 12.5872 10.225 12.5872C11.9855 12.5872 13.4128 14.0145 13.4128 15.775C13.4128 17.5356 11.9855 18.9628 10.225 18.9628Z" fill="#0041D6"/>
<path d="M36.305 10.2966L34.998 9.26442C34.7898 9.10002 34.6742 8.84798 34.6741 8.58264C34.6741 8.57985 34.6741 8.57705 34.6741 8.57419C34.6736 8.30828 34.7893 8.05559 34.998 7.89083L36.305 6.85863C36.6043 6.62226 36.7102 6.21584 36.5642 5.8635L35.9901 4.47746C35.8442 4.12504 35.4819 3.91257 35.1032 3.95706L33.4491 4.15137C33.185 4.18242 32.9245 4.08555 32.7369 3.89718C32.7349 3.89518 32.7329 3.89318 32.7309 3.89125C32.5433 3.70352 32.4469 3.44354 32.4779 3.18005L32.6722 1.52609C32.7167 1.14735 32.5041 0.785068 32.1518 0.639123L30.7658 0.0650762C30.4134 -0.080868 30.007 0.0250131 29.7706 0.32427L28.7384 1.63119C28.5739 1.83944 28.3219 1.95498 28.0566 1.95512C28.0538 1.95512 28.051 1.95512 28.0482 1.95512C27.7823 1.95555 27.5297 1.83987 27.3648 1.63119L26.3326 0.324199C26.0963 0.0248701 25.6898 -0.081011 25.3374 0.0649332L23.9514 0.639052C23.599 0.784996 23.3865 1.14728 23.431 1.52609L23.6253 3.18013C23.6563 3.44418 23.5595 3.70467 23.3711 3.89239C23.3691 3.89439 23.3671 3.8964 23.3651 3.8984C23.1774 4.08598 22.9175 4.18242 22.6539 4.15144L20.9999 3.95714C20.6211 3.91264 20.2589 4.12519 20.113 4.47753L19.5389 5.86357C19.3929 6.21591 19.4988 6.62241 19.7981 6.85878L21.105 7.8909C21.3133 8.05538 21.4288 8.30735 21.429 8.57269C21.429 8.57555 21.429 8.57834 21.429 8.58113C21.4295 8.84705 21.3137 9.09974 21.105 9.2645L19.7981 10.2967C19.4987 10.5331 19.3928 10.9395 19.5389 11.2918L20.1129 12.6779C20.2588 13.0302 20.6211 13.2428 20.9999 13.1983L22.654 13.004C22.918 12.9729 23.1785 13.0698 23.3662 13.2581C23.3682 13.2601 23.3702 13.2621 23.3722 13.2641C23.5598 13.4518 23.6562 13.7117 23.6252 13.9753L23.4309 15.6293C23.3864 16.0081 23.599 16.3703 23.9513 16.5163L25.3373 17.0904C25.6897 17.2363 26.0961 17.1305 26.3326 16.8311L27.3647 15.5242C27.5292 15.316 27.7811 15.2004 28.0465 15.2003C28.0493 15.2003 28.0521 15.2003 28.0549 15.2003C28.3208 15.1998 28.5735 15.3155 28.7383 15.5242L29.7705 16.8312C30.0068 17.1305 30.4133 17.2364 30.7657 17.0905L32.1517 16.5163C32.5041 16.3704 32.7166 16.0081 32.6721 15.6294L32.4778 13.9753C32.4468 13.7113 32.5436 13.4507 32.732 13.2631C32.734 13.2611 32.736 13.2591 32.738 13.2571C32.9257 13.0696 33.1856 12.9731 33.4492 13.0041L35.1032 13.1984C35.482 13.2429 35.8443 13.0304 35.9902 12.678L36.5643 11.292C36.7101 10.9394 36.6043 10.5329 36.305 10.2966ZM28.899 11.0469C27.5694 11.5977 26.0452 10.9663 25.4945 9.63672C24.9437 8.30713 25.5752 6.78294 26.9047 6.23222C28.2342 5.68149 29.7585 6.31285 30.3092 7.64244C30.8598 8.97196 30.2285 10.4963 28.899 11.0469Z" fill="#0041D6"/>
</svg>
