<svg width="29" height="28" viewBox="0 0 29 28" fill="none" xmlns="http://www.w3.org/2000/svg">
<path d="M21.9139 3.42055L19.1004 1.94409C16.6307 0.648034 15.3959 0 14.0675 0C12.7391 0 11.5043 0.648034 9.03455 1.94409L8.58197 2.18159L21.1345 9.35444L26.785 6.52919C25.8759 5.49968 24.4092 4.72998 21.9139 3.42055Z" fill="#0041D6"/>
<path d="M27.7811 8.39035L22.1564 11.2027V15.4743C22.1564 16.057 21.684 16.5293 21.1013 16.5293C20.5186 16.5293 20.0463 16.057 20.0463 15.4743V12.2577L15.1226 14.7196V28C16.1325 27.7485 17.2817 27.1454 19.1005 26.1909L21.914 24.7145C24.9409 23.126 26.4543 22.3319 27.2947 20.9048C28.1351 19.4776 28.1351 17.7016 28.1351 14.1498V13.9852C28.1351 11.3228 28.1351 9.65816 27.7811 8.39035Z" fill="#0041D6"/>
<path d="M13.0125 28V14.7196L0.353995 8.39035C1.25773e-07 9.65816 0 11.3228 0 13.9852V14.1498C0 17.7016 -8.3849e-08 19.4776 0.840394 20.9048C1.68077 22.3319 3.1942 23.126 6.22105 24.7145L9.03457 26.1909C10.8534 27.1454 12.0026 27.7485 13.0125 28Z" fill="#0041D6"/>
<path d="M1.35004 6.5292L14.0675 12.888L18.8662 10.4886L6.36493 3.34506L6.22106 3.42056C3.72584 4.73 2.25909 5.4997 1.35004 6.5292Z" fill="#0041D6"/>
</svg>
