<svg width="27" height="30" viewBox="0 0 27 30" fill="none" xmlns="http://www.w3.org/2000/svg">
<path d="M8.11796 10.0585L8.29198 10.0436C8.35786 10.0362 8.41753 10.0126 8.46725 9.97775L8.466 9.97899C8.63257 10.5533 8.83643 11.1574 9.09125 11.7901C9.41816 12.6179 9.7401 13.2979 10.1006 13.9542L10.0509 13.8547C10.021 14.3072 9.98498 14.7721 9.93774 15.2221C9.91537 15.4993 9.86068 15.7578 9.77739 16.0014L9.78361 15.9791C9.76869 15.9853 9.74756 18.5645 9.74756 18.5645C9.7488 20.2464 10.9135 21.6547 12.4797 22.0289L12.5046 22.0338C12.5754 21.8536 12.747 21.728 12.9483 21.728H13.6618C13.862 21.7305 14.0335 21.8548 14.1044 22.0301L14.1056 22.0338C15.7004 21.6584 16.8701 20.2501 16.8763 18.567C16.8763 18.567 16.8328 15.9977 16.8104 15.9803C16.7421 15.7628 16.6874 15.5067 16.6588 15.2432L16.6575 15.2245C16.614 14.7721 16.5854 14.3184 16.5444 13.8572C16.8514 13.3028 17.1734 12.6241 17.4568 11.9243L17.504 11.7926C17.7588 11.1599 17.9565 10.557 18.1293 9.98147C18.1777 10.0163 18.2374 10.0399 18.302 10.0474H18.3033L18.4786 10.0623C18.6899 10.0846 18.8763 9.91062 18.8937 9.64089L19.0827 7.24061C19.0827 7.23937 19.0827 7.23812 19.0827 7.23812C19.0827 7.03551 18.931 6.86894 18.7359 6.84408H18.7334H18.7122C18.7607 6.49479 18.7881 6.09206 18.7881 5.6831C18.7881 4.79061 18.6563 3.92795 18.4114 3.11626L18.4276 3.17965C17.7104 1.60599 16.2884 0.463648 14.5755 0.144191L14.5431 0.139219C14.1752 0.0633942 13.7464 0.0124302 13.3088 0H13.2976H13.2827C12.8365 0.00870116 12.4076 0.0584221 11.9925 0.146677L12.0372 0.139219C10.2945 0.467377 8.87496 1.60971 8.16644 3.14609L8.15276 3.17965C7.92156 3.92547 7.78856 4.78315 7.78856 5.67067C7.78856 6.0846 7.81715 6.49231 7.87308 6.89008L7.86811 6.84408C7.67047 6.86646 7.51758 7.03178 7.51758 7.23315V7.24185L7.70652 9.64213C7.72392 9.91808 7.91286 10.0846 8.11672 10.0623L8.11796 10.0585Z" fill="#0041D6"/>
<path d="M26.6216 25.9444C26.5346 22.1656 26.1567 21.3104 25.9529 20.7311C25.8721 20.4987 25.8062 18.9275 23.2107 17.9082C21.6197 17.2817 19.5662 17.2693 17.8285 16.5347V18.5782C17.8247 20.7759 16.2511 22.6044 14.169 23.0034L14.1404 23.0083C14.1019 23.2346 13.908 23.4036 13.6755 23.4061H13.6531V24.9475C13.6531 26.454 14.8738 27.6747 16.3803 27.6747C17.8869 27.6747 19.1075 26.454 19.1075 24.9475V23.871C18.3518 23.7579 17.7787 23.114 17.7787 22.3359C17.7787 21.4794 18.4736 20.7846 19.33 20.7846C20.1865 20.7846 20.8813 21.4794 20.8813 22.3359C20.8813 23.0146 20.445 23.5913 19.8384 23.8026L19.8272 23.8064V24.9475V25.0059C19.8272 26.9102 18.2834 28.454 16.3791 28.454C14.4748 28.454 12.9309 26.9102 12.9309 25.0059C12.9309 24.9847 12.9309 24.9649 12.9309 24.9437V24.9462V23.3912C12.7097 23.3763 12.5307 23.2097 12.4959 22.9959V22.9934C10.3952 22.5845 8.82897 20.7622 8.824 18.5732V16.5135C7.0788 17.2631 5.01289 17.278 3.41312 17.9057C0.810231 18.9238 0.750566 20.4912 0.671012 20.7274C0.472129 21.3091 0.0892777 22.1606 0.00226605 25.9419C-0.0126502 26.4391 0.00226612 27.2011 1.50135 27.8673C4.76553 29.1476 8.97068 29.5454 13.1162 29.8313H13.5139C17.6681 29.5479 21.867 29.1514 25.1287 27.8673C26.6216 27.2048 26.6353 26.4465 26.6216 25.9444ZM8.37278 24.403H6.82398V25.958H5.71769V24.408H4.16888V23.3017H5.71769V21.7529H6.82398V23.3017H8.37278V24.403Z" fill="#0041D6"/>
</svg>
