<svg width="129" height="57" viewBox="0 0 129 57" fill="none" xmlns="http://www.w3.org/2000/svg">
<path fill-rule="evenodd" clip-rule="evenodd" d="M27.4286 0C21.9846 0 17.5714 4.41319 17.5714 9.85715V19.7143H9.85715C4.41319 19.7143 0 24.1275 0 29.5715C0 35.0154 4.4132 39.4286 9.85715 39.4286H17.5714V47.1429C17.5714 52.5868 21.9846 57 27.4286 57C32.8725 57 37.2857 52.5868 37.2857 47.1429V39.3767L31.2713 39.2964C28.7636 39.2668 26.2526 38.2817 24.3343 36.3423C20.5057 32.4715 20.4935 26.2774 24.3072 22.5053C26.218 20.6153 28.7253 19.695 31.233 19.7302L37.2857 19.8057V9.85715C37.2857 4.41319 32.8725 0 27.4286 0Z" fill="#2EEB8F"/>
<path d="M36.8311 39.8137L43.5346 40.0115L43.5346 39.9971C46.1012 40.0455 48.6594 39.1345 50.6121 37.2324C54.5737 33.3733 54.5556 26.9311 50.5716 22.8411C48.6064 20.8237 46.0442 19.7653 43.4774 19.6644L43.4774 19.65L36.7739 19.458L36.8311 39.8137Z" fill="#F9F9F9"/>
<path d="M36.463 19.8893L36.4617 20.3867L36.4135 38.8625L36.4122 39.3656L35.9091 39.3612L29.9328 39.3087L36.463 19.8893ZM36.463 19.8893L35.9656 19.8854M36.463 19.8893L35.9656 19.8854M35.9656 19.8854L29.9893 19.8381M35.9656 19.8854L29.9893 19.8381M29.9893 19.8381C29.9892 19.8381 29.989 19.8381 29.9889 19.8381M29.9893 19.8381L29.9889 19.8381M29.9889 19.8381C27.4945 19.8146 24.9934 20.7419 23.0823 22.6322C19.2673 26.4056 19.2541 32.5695 23.0444 36.4015C24.9436 38.3217 27.4379 39.2905 29.9321 39.3087L29.9889 19.8381Z" fill="#0041D6" stroke="white"/>
<g filter="url(#filter0_d_151_519)">
<path d="M57.8438 33V19.9091H63.4943C64.4659 19.9091 65.3161 20.1009 66.0447 20.4844C66.7734 20.8679 67.3402 21.407 67.745 22.1016C68.1499 22.7962 68.3523 23.608 68.3523 24.5369C68.3523 25.4744 68.1435 26.2862 67.7259 26.9723C67.3125 27.6584 66.7308 28.1868 65.9808 28.5575C65.2351 28.9283 64.3636 29.1136 63.3665 29.1136H59.9915V26.3523H62.6506C63.0682 26.3523 63.424 26.2798 63.718 26.1349C64.0163 25.9858 64.2443 25.7749 64.402 25.5021C64.5639 25.2294 64.6449 24.9077 64.6449 24.5369C64.6449 24.1619 64.5639 23.8423 64.402 23.5781C64.2443 23.3097 64.0163 23.1051 63.718 22.9645C63.424 22.8196 63.0682 22.7472 62.6506 22.7472H61.3977V33H57.8438ZM73.2358 27.4773V33H69.7074V19.9091H73.108V25.0483H73.2102C73.4318 24.4219 73.8004 23.9339 74.3161 23.5845C74.8317 23.2308 75.4517 23.054 76.1761 23.054C76.8707 23.054 77.4737 23.2116 77.9851 23.527C78.5007 23.8423 78.8991 24.277 79.1804 24.831C79.4659 25.3849 79.6065 26.0199 79.6023 26.7358V33H76.0739V27.4773C76.0781 26.9915 75.9567 26.6101 75.7095 26.3331C75.4666 26.0561 75.1193 25.9176 74.6676 25.9176C74.3821 25.9176 74.1307 25.9815 73.9134 26.1094C73.7003 26.233 73.5341 26.4119 73.4148 26.6463C73.2997 26.8764 73.2401 27.1534 73.2358 27.4773ZM84.0799 33.1534C83.4535 33.1534 82.8995 33.0511 82.418 32.8466C81.9407 32.6378 81.5657 32.3224 81.293 31.9006C81.0202 31.4787 80.8839 30.9418 80.8839 30.2898C80.8839 29.7528 80.9755 29.2947 81.1587 28.9155C81.342 28.532 81.5977 28.2188 81.9258 27.9759C82.2539 27.733 82.6353 27.5476 83.07 27.4197C83.5089 27.2919 83.9819 27.2088 84.489 27.1705C85.0387 27.1278 85.4798 27.0767 85.8121 27.017C86.1488 26.9531 86.3917 26.8658 86.5408 26.755C86.69 26.6399 86.7646 26.4886 86.7646 26.3011V26.2756C86.7646 26.0199 86.6665 25.8239 86.4705 25.6875C86.2745 25.5511 86.0231 25.483 85.7163 25.483C85.3796 25.483 85.1048 25.5575 84.8917 25.7067C84.6829 25.8516 84.5572 26.0753 84.5146 26.3778H81.2674C81.31 25.7812 81.4996 25.2315 81.8363 24.7287C82.1772 24.2216 82.6737 23.8168 83.3256 23.5142C83.9776 23.2074 84.7915 23.054 85.7674 23.054C86.4705 23.054 87.1012 23.1371 87.6594 23.3033C88.2177 23.4652 88.6928 23.6932 89.0849 23.9872C89.4769 24.277 89.7752 24.6179 89.9798 25.0099C90.1886 25.3977 90.293 25.8196 90.293 26.2756V33H86.9947V31.6193H86.918C86.7219 31.9858 86.4833 32.282 86.2021 32.5078C85.9251 32.7337 85.6076 32.8977 85.2496 33C84.896 33.1023 84.506 33.1534 84.0799 33.1534ZM85.2305 30.929C85.4989 30.929 85.7504 30.8736 85.9847 30.7628C86.2234 30.652 86.4173 30.4922 86.5664 30.2834C86.7156 30.0746 86.7901 29.821 86.7901 29.5227V28.7045C86.6964 28.7429 86.5962 28.7791 86.4897 28.8132C86.3874 28.8473 86.2766 28.8793 86.1573 28.9091C86.0423 28.9389 85.9187 28.9666 85.7866 28.9922C85.6587 29.0178 85.5245 29.0412 85.3839 29.0625C85.1112 29.1051 84.8874 29.1754 84.7127 29.2734C84.5423 29.3672 84.4144 29.4844 84.3292 29.625C84.2482 29.7614 84.2077 29.9148 84.2077 30.0852C84.2077 30.358 84.3036 30.5668 84.4954 30.7116C84.6871 30.8565 84.9322 30.929 85.2305 30.929ZM91.9789 33V23.1818H95.405V25.0483H95.5073C95.6863 24.358 95.9696 23.853 96.3574 23.5334C96.7495 23.2138 97.2076 23.054 97.7317 23.054C97.8851 23.054 98.0364 23.0668 98.1855 23.0923C98.339 23.1136 98.486 23.1456 98.6266 23.1882V26.1989C98.4519 26.1392 98.2367 26.0945 97.981 26.0646C97.7253 26.0348 97.5059 26.0199 97.3226 26.0199C96.9775 26.0199 96.6664 26.0987 96.3894 26.2564C96.1167 26.4098 95.9015 26.6271 95.7438 26.9084C95.5861 27.1854 95.5073 27.5114 95.5073 27.8864V33H91.9789ZM99.7836 33V23.1818H103.133V25.0483H103.235C103.44 24.4347 103.789 23.9489 104.284 23.5909C104.778 23.233 105.366 23.054 106.048 23.054C106.738 23.054 107.333 23.2372 107.831 23.6037C108.33 23.9659 108.63 24.4474 108.732 25.0483H108.835C109.001 24.4474 109.355 23.9659 109.896 23.6037C110.437 23.2372 111.072 23.054 111.801 23.054C112.742 23.054 113.505 23.3565 114.089 23.9616C114.677 24.5668 114.971 25.3722 114.971 26.3778V33H111.443V27.2727C111.443 26.8423 111.334 26.5057 111.117 26.2628C110.899 26.0156 110.607 25.892 110.241 25.892C109.879 25.892 109.591 26.0156 109.378 26.2628C109.169 26.5057 109.065 26.8423 109.065 27.2727V33H105.69V27.2727C105.69 26.8423 105.581 26.5057 105.364 26.2628C105.146 26.0156 104.855 25.892 104.488 25.892C104.245 25.892 104.036 25.9474 103.862 26.0582C103.687 26.169 103.551 26.3288 103.453 26.5376C103.359 26.7422 103.312 26.9872 103.312 27.2727V33H99.7836ZM119.447 33.1534C118.821 33.1534 118.267 33.0511 117.785 32.8466C117.308 32.6378 116.933 32.3224 116.66 31.9006C116.387 31.4787 116.251 30.9418 116.251 30.2898C116.251 29.7528 116.343 29.2947 116.526 28.9155C116.709 28.532 116.965 28.2188 117.293 27.9759C117.621 27.733 118.002 27.5476 118.437 27.4197C118.876 27.2919 119.349 27.2088 119.856 27.1705C120.406 27.1278 120.847 27.0767 121.179 27.017C121.516 26.9531 121.759 26.8658 121.908 26.755C122.057 26.6399 122.132 26.4886 122.132 26.3011V26.2756C122.132 26.0199 122.034 25.8239 121.838 25.6875C121.642 25.5511 121.39 25.483 121.083 25.483C120.747 25.483 120.472 25.5575 120.259 25.7067C120.05 25.8516 119.924 26.0753 119.882 26.3778H116.635C116.677 25.7812 116.867 25.2315 117.203 24.7287C117.544 24.2216 118.041 23.8168 118.693 23.5142C119.345 23.2074 120.159 23.054 121.135 23.054C121.838 23.054 122.468 23.1371 123.027 23.3033C123.585 23.4652 124.06 23.6932 124.452 23.9872C124.844 24.277 125.142 24.6179 125.347 25.0099C125.556 25.3977 125.66 25.8196 125.66 26.2756V33H122.362V31.6193H122.285C122.089 31.9858 121.85 32.282 121.569 32.5078C121.292 32.7337 120.975 32.8977 120.617 33C120.263 33.1023 119.873 33.1534 119.447 33.1534ZM120.598 30.929C120.866 30.929 121.118 30.8736 121.352 30.7628C121.591 30.652 121.784 30.4922 121.934 30.2834C122.083 30.0746 122.157 29.821 122.157 29.5227V28.7045C122.064 28.7429 121.963 28.7791 121.857 28.8132C121.755 28.8473 121.644 28.8793 121.525 28.9091C121.409 28.9389 121.286 28.9666 121.154 28.9922C121.026 29.0178 120.892 29.0412 120.751 29.0625C120.478 29.1051 120.255 29.1754 120.08 29.2734C119.909 29.3672 119.782 29.4844 119.696 29.625C119.615 29.7614 119.575 29.9148 119.575 30.0852C119.575 30.358 119.671 30.5668 119.863 30.7116C120.054 30.8565 120.299 30.929 120.598 30.929ZM59.6463 34.9091H62.5483L64.8686 44.3949H65.022L70.4744 34.9091H73.3764L71.2031 48H68.9276L70.4233 39.0064H70.3082L65.1946 47.9616H63.5007L61.3786 38.9872H61.2571L59.7486 48H57.473L59.6463 34.9091ZM76.483 48.1982C75.8608 48.1982 75.3196 48.0874 74.8594 47.8658C74.3991 47.6399 74.0604 47.3075 73.843 46.8686C73.63 46.4297 73.5767 45.8885 73.6832 45.245C73.777 44.6911 73.956 44.233 74.2202 43.8707C74.4886 43.5085 74.8168 43.2188 75.2045 43.0014C75.5966 42.7798 76.0227 42.6136 76.483 42.5028C76.9474 42.392 77.4205 42.3111 77.902 42.2599C78.4901 42.2003 78.9652 42.1449 79.3274 42.0938C79.6939 42.0426 79.9688 41.9659 80.152 41.8636C80.3352 41.7571 80.446 41.5952 80.4844 41.3778V41.3395C80.5611 40.858 80.4844 40.4851 80.2543 40.2209C80.0241 39.9567 79.6406 39.8246 79.1037 39.8246C78.5412 39.8246 78.0682 39.9482 77.6847 40.1953C77.3011 40.4425 77.022 40.7344 76.8473 41.071L74.7507 40.7642C75.0149 40.1676 75.3771 39.669 75.8374 39.2685C76.2976 38.8636 76.8281 38.5611 77.429 38.3608C78.0341 38.1562 78.6797 38.054 79.3658 38.054C79.8345 38.054 80.2926 38.1094 80.7401 38.2202C81.1918 38.331 81.5902 38.5142 81.9354 38.7699C82.2848 39.0213 82.5405 39.3643 82.7024 39.799C82.8686 40.2337 82.8963 40.777 82.7855 41.429L81.6925 48H79.468L79.6982 46.6513H79.6214C79.4382 46.924 79.1996 47.1797 78.9055 47.4183C78.6115 47.6527 78.2621 47.8423 77.8572 47.9872C77.4524 48.1278 76.9943 48.1982 76.483 48.1982ZM77.3587 46.4979C77.8232 46.4979 78.2408 46.4062 78.6115 46.223C78.9822 46.0355 79.2869 45.7884 79.5256 45.4815C79.7642 45.1747 79.9134 44.8402 79.973 44.478L80.1648 43.321C80.0795 43.3807 79.9474 43.4361 79.7685 43.4872C79.5895 43.5384 79.3892 43.5831 79.1676 43.6214C78.9503 43.6598 78.7351 43.6939 78.522 43.7237C78.3089 43.7536 78.1257 43.7791 77.9723 43.8004C77.6186 43.8473 77.2947 43.924 77.0007 44.0305C76.7109 44.1371 76.4702 44.2862 76.2784 44.478C76.0909 44.6655 75.9737 44.9084 75.9268 45.2067C75.8587 45.6286 75.9588 45.9503 76.2273 46.1719C76.4957 46.3892 76.8729 46.4979 77.3587 46.4979ZM87.2919 42.2472L86.3459 48H84.0256L85.6619 38.1818H87.88L87.5987 39.8501H87.7202C88.027 39.3004 88.4574 38.8636 89.0114 38.5398C89.5653 38.2159 90.2109 38.054 90.9482 38.054C91.6172 38.054 92.1797 38.1989 92.6357 38.4886C93.0916 38.7741 93.4155 39.1939 93.6072 39.7479C93.799 40.2976 93.8288 40.9645 93.6967 41.7486L92.6484 48H90.3345L91.3125 42.1065C91.4233 41.4545 91.3402 40.9432 91.0632 40.5724C90.7905 40.1974 90.3516 40.0099 89.7464 40.0099C89.3416 40.0099 88.9688 40.0994 88.6278 40.2784C88.2869 40.4531 87.9993 40.7067 87.7649 41.0391C87.5348 41.3714 87.3771 41.7741 87.2919 42.2472ZM97.7876 48.1982C97.1655 48.1982 96.6243 48.0874 96.1641 47.8658C95.7038 47.6399 95.3651 47.3075 95.1477 46.8686C94.9347 46.4297 94.8814 45.8885 94.9879 45.245C95.0817 44.6911 95.2607 44.233 95.5249 43.8707C95.7933 43.5085 96.1214 43.2188 96.5092 43.0014C96.9013 42.7798 97.3274 42.6136 97.7876 42.5028C98.2521 42.392 98.7251 42.3111 99.2067 42.2599C99.7947 42.2003 100.27 42.1449 100.632 42.0938C100.999 42.0426 101.273 41.9659 101.457 41.8636C101.64 41.7571 101.751 41.5952 101.789 41.3778V41.3395C101.866 40.858 101.789 40.4851 101.559 40.2209C101.329 39.9567 100.945 39.8246 100.408 39.8246C99.8459 39.8246 99.3729 39.9482 98.9893 40.1953C98.6058 40.4425 98.3267 40.7344 98.152 41.071L96.0554 40.7642C96.3196 40.1676 96.6818 39.669 97.142 39.2685C97.6023 38.8636 98.1328 38.5611 98.7337 38.3608C99.3388 38.1562 99.9844 38.054 100.67 38.054C101.139 38.054 101.597 38.1094 102.045 38.2202C102.496 38.331 102.895 38.5142 103.24 38.7699C103.589 39.0213 103.845 39.3643 104.007 39.799C104.173 40.2337 104.201 40.777 104.09 41.429L102.997 48H100.773L101.003 46.6513H100.926C100.743 46.924 100.504 47.1797 100.21 47.4183C99.9162 47.6527 99.5668 47.8423 99.1619 47.9872C98.7571 48.1278 98.299 48.1982 97.7876 48.1982ZM98.6634 46.4979C99.1278 46.4979 99.5455 46.4062 99.9162 46.223C100.287 46.0355 100.592 45.7884 100.83 45.4815C101.069 45.1747 101.218 44.8402 101.278 44.478L101.469 43.321C101.384 43.3807 101.252 43.4361 101.073 43.4872C100.894 43.5384 100.694 43.5831 100.472 43.6214C100.255 43.6598 100.04 43.6939 99.8267 43.7237C99.6136 43.7536 99.4304 43.7791 99.277 43.8004C98.9233 43.8473 98.5994 43.924 98.3054 44.0305C98.0156 44.1371 97.7749 44.2862 97.5831 44.478C97.3956 44.6655 97.2784 44.9084 97.2315 45.2067C97.1634 45.6286 97.2635 45.9503 97.532 46.1719C97.8004 46.3892 98.1776 46.4979 98.6634 46.4979ZM108.98 51.8864C108.145 51.8864 107.448 51.7734 106.89 51.5476C106.332 51.326 105.901 51.0277 105.599 50.6527C105.296 50.2777 105.109 49.8622 105.036 49.4062L107.21 48.9013C107.273 49.093 107.376 49.2827 107.516 49.4702C107.661 49.6619 107.874 49.8196 108.156 49.9432C108.437 50.071 108.812 50.1349 109.281 50.1349C109.937 50.1349 110.51 49.9751 111 49.6555C111.49 49.3359 111.793 48.8161 111.908 48.0959L112.202 46.2358H112.087C111.933 46.4744 111.722 46.7195 111.454 46.9709C111.19 47.2223 110.855 47.4332 110.45 47.6037C110.05 47.7741 109.568 47.8594 109.006 47.8594C108.251 47.8594 107.597 47.6825 107.043 47.3288C106.489 46.9709 106.091 46.4382 105.848 45.7308C105.609 45.0192 105.58 44.1286 105.759 43.0589C105.933 41.9808 106.261 41.071 106.743 40.3295C107.229 39.5838 107.81 39.0192 108.488 38.6357C109.165 38.2479 109.881 38.054 110.636 38.054C111.211 38.054 111.669 38.152 112.01 38.348C112.351 38.5398 112.609 38.772 112.783 39.0447C112.958 39.3132 113.086 39.5668 113.167 39.8054H113.288L113.557 38.1818H115.839L114.19 48.1598C114.053 48.9993 113.74 49.6939 113.25 50.2436C112.76 50.7976 112.144 51.2088 111.403 51.4773C110.665 51.75 109.858 51.8864 108.98 51.8864ZM109.926 46.044C110.416 46.044 110.855 45.9247 111.243 45.6861C111.631 45.4474 111.955 45.1044 112.214 44.657C112.474 44.2095 112.656 43.6726 112.758 43.0462C112.86 42.4283 112.856 41.8871 112.745 41.4226C112.638 40.9581 112.432 40.598 112.125 40.3423C111.818 40.0824 111.418 39.9524 110.923 39.9524C110.408 39.9524 109.956 40.0866 109.568 40.3551C109.185 40.6236 108.869 40.9922 108.622 41.4609C108.379 41.9254 108.209 42.4538 108.111 43.0462C108.017 43.647 108.017 44.1733 108.111 44.625C108.209 45.0724 108.407 45.4219 108.705 45.6733C109.008 45.9205 109.415 46.044 109.926 46.044ZM120.895 48.1918C119.911 48.1918 119.097 47.9872 118.453 47.5781C117.81 47.1648 117.358 46.581 117.098 45.8267C116.842 45.0682 116.8 44.1754 116.97 43.1484C117.136 42.1385 117.475 41.2521 117.987 40.4893C118.498 39.7223 119.137 39.1257 119.904 38.6996C120.675 38.2692 121.528 38.054 122.461 38.054C123.066 38.054 123.622 38.152 124.129 38.348C124.636 38.5398 125.065 38.8381 125.414 39.2429C125.763 39.6477 126.004 40.1634 126.136 40.7898C126.268 41.4119 126.262 42.1534 126.117 43.0142L126.009 43.7237H117.955L118.204 42.1641H124.033C124.11 41.7209 124.085 41.3267 123.957 40.9815C123.829 40.6321 123.616 40.3572 123.317 40.157C123.019 39.9567 122.646 39.8565 122.199 39.8565C121.743 39.8565 121.317 39.9737 120.92 40.2081C120.528 40.4382 120.198 40.7365 119.93 41.103C119.661 41.4695 119.491 41.8551 119.418 42.2599L119.156 43.7557C119.062 44.3693 119.084 44.87 119.22 45.2578C119.357 45.6456 119.595 45.9311 119.936 46.1143C120.277 46.2976 120.707 46.3892 121.227 46.3892C121.568 46.3892 121.884 46.3423 122.173 46.2486C122.463 46.1548 122.721 46.0142 122.947 45.8267C123.177 45.6349 123.369 45.4006 123.522 45.1236L125.638 45.3665C125.403 45.9375 125.06 46.4361 124.609 46.8622C124.157 47.2841 123.616 47.6122 122.985 47.8466C122.359 48.0767 121.662 48.1918 120.895 48.1918Z" fill="white"/>
</g>
<defs>
<filter id="filter0_d_151_519" x="55.473" y="17.9091" width="72.8615" height="35.9772" filterUnits="userSpaceOnUse" color-interpolation-filters="sRGB">
<feFlood flood-opacity="0" result="BackgroundImageFix"/>
<feColorMatrix in="SourceAlpha" type="matrix" values="0 0 0 0 0 0 0 0 0 0 0 0 0 0 0 0 0 0 127 0" result="hardAlpha"/>
<feOffset/>
<feGaussianBlur stdDeviation="1"/>
<feComposite in2="hardAlpha" operator="out"/>
<feColorMatrix type="matrix" values="0 0 0 0 0 0 0 0 0 0 0 0 0 0 0 0 0 0 0.25 0"/>
<feBlend mode="normal" in2="BackgroundImageFix" result="effect1_dropShadow_151_519"/>
<feBlend mode="normal" in="SourceGraphic" in2="effect1_dropShadow_151_519" result="shape"/>
</filter>
</defs>
</svg>
