<svg width="143" height="142" viewBox="0 0 143 142" fill="none" xmlns="http://www.w3.org/2000/svg">
<path fill-rule="evenodd" clip-rule="evenodd" d="M68.0119 0.861572C54.5515 0.861572 43.6396 11.7734 43.6396 25.2339V49.6063H24.5656C11.1052 49.6063 0.193329 60.5181 0.193329 73.9786C0.193329 87.4391 11.1052 98.3509 24.5657 98.3509H43.6396V117.425C43.6396 130.885 54.5515 141.797 68.0119 141.797C81.4724 141.797 92.3843 130.885 92.3843 117.425V98.2226L77.5133 98.0241C71.3128 97.9508 65.1042 95.5152 60.3611 90.7199C50.8947 81.1492 50.8647 65.8339 60.2941 56.5071C65.0187 51.8341 71.218 49.5586 77.4186 49.6455L92.3843 49.8322V25.2339C92.3843 11.7734 81.4724 0.861572 68.0119 0.861572Z" fill="#2EEB8F"/>
<path d="M92.2827 98.3937L107.892 98.645L109.3 98.6355C119.537 98.2109 121.106 95.7866 125.713 91.2975C135.062 82.1898 133.796 66.6693 124.643 57.2717C120.128 52.6363 114.193 50.2522 108.217 50.0974L108.218 50.0639L92.6085 49.826L92.2827 98.3937Z" fill="#F9F9F9"/>
<path d="M92.3436 50.6462L92.3466 50.2445L91.9449 50.2432L76.7552 50.1959C76.755 50.1959 76.7549 50.1959 76.7547 50.1959C70.6366 50.1675 64.4968 52.4701 59.7911 57.1245C50.3995 66.4138 50.2862 81.5267 59.5425 90.8849C64.1802 95.5737 70.2868 97.9199 76.4051 97.9349L91.5947 97.9955L91.9933 97.9971L91.9963 97.5985L92.3436 50.6462Z" fill="#0041D6" stroke="white" stroke-width="0.8"/>
</svg>
