<svg width="157" height="273" viewBox="0 0 157 273" fill="none" xmlns="http://www.w3.org/2000/svg">
<path d="M114.277 51.5821C114.277 45.7399 109.538 41 103.695 41H32.3046C26.4624 41 21.7225 45.7399 21.7225 51.5821V74.2934H114.278L114.277 51.5821Z" fill="white"/>
<path d="M120.078 114.446C110.689 109.749 107.553 98.7849 107.553 89.3896C107.553 88.782 107.553 87.885 107.553 86.7334C107.553 86.3094 107.553 85.9138 107.553 85.4052H28.4476C28.4476 85.9138 28.4476 86.3094 28.4476 86.7334C28.4476 86.875 28.4476 87.6237 28.4476 89.3896C28.4476 98.7849 25.3109 109.749 15.9228 114.446C4.70465 120.049 0 128.398 0 148.341C0 155.454 0 221.929 0 233.323C0 252.545 13.528 272.48 40.5909 272.48H95.4091C122.472 272.48 136 252.545 136 233.323C136 221.929 136 155.455 136 148.341C136 128.399 131.295 120.049 120.078 114.446ZM113.734 224.881H22.2664V150.206H113.734V224.881H113.734Z" fill="white"/>
<path d="M60.1731 215.931H75.8202V197.352H94.3919V181.719H75.8202V163.14H60.1731V181.719H41.6081V197.352H60.1731V215.931Z" fill="white"/>
<path d="M157 36.4714L146.476 25.9455C148.328 23.202 149.316 19.967 149.312 16.6572C149.312 7.47318 141.843 0 132.657 0C123.473 0 116 7.47318 116 16.6572C116 25.843 123.473 33.3144 132.657 33.3144C135.967 33.3183 139.202 32.3303 141.946 30.4779L152.468 41L157 36.4714ZM132.657 28.1875C129.6 28.1845 126.668 26.9686 124.506 24.8065C122.344 22.6445 121.128 19.7129 121.125 16.6553C121.128 13.5979 122.345 10.6666 124.507 8.50465C126.668 6.34269 129.6 5.12659 132.657 5.12314C135.715 5.12659 138.646 6.34269 140.808 8.50465C142.97 10.6666 144.186 13.5979 144.189 16.6553C144.186 19.7128 142.97 22.644 140.808 24.806C138.646 26.9679 135.715 28.184 132.657 28.1875Z" fill="white"/>
</svg>
