<svg width="16" height="16" viewBox="0 0 16 16" fill="none" xmlns="http://www.w3.org/2000/svg">
<path d="M16 14.2327L11.8931 10.1251C12.6157 9.05445 13.0012 7.79202 13 6.50036C13 2.91636 10.0851 0 6.50036 0C2.91636 0 0 2.91636 0 6.50036C0 10.0851 2.91636 13.0007 6.50036 13.0007C7.79207 13.0023 9.0546 12.6167 10.1251 11.8938L14.2313 16L16 14.2327ZM6.50036 11C5.30715 10.9988 4.16313 10.5243 3.3194 9.6806C2.47567 8.83687 2.00116 7.69285 2 6.49964C2.00135 5.30648 2.47592 4.16258 3.31961 3.31889C4.1633 2.4752 5.30721 2.00062 6.50036 1.99927C7.69352 2.00062 8.83742 2.4752 9.68111 3.31889C10.5248 4.16258 10.9994 5.30648 11.0007 6.49964C10.9994 7.69279 10.5248 8.8367 9.68111 9.68039C8.83742 10.5241 7.69352 10.9987 6.50036 11Z" fill="#0041D6"/>
</svg>
