<svg width="19" height="32" viewBox="0 0 19 32" fill="none" xmlns="http://www.w3.org/2000/svg">
<path d="M15.5459 1.43955C15.5459 0.644801 14.9011 0 14.1063 0H4.39459C3.59985 0 2.95505 0.644801 2.95505 1.43955V4.5291H15.5459L15.5459 1.43955Z" fill="#0041D6"/>
<path d="M16.3349 9.99141C15.0577 9.35233 14.6311 7.86087 14.6311 6.58277C14.6311 6.50011 14.6311 6.37809 14.6311 6.22144C14.6311 6.16375 14.6311 6.10993 14.6311 6.04074H3.86991C3.86991 6.10993 3.86991 6.16375 3.86991 6.22144C3.86991 6.24069 3.86991 6.34254 3.86991 6.58277C3.86991 7.86087 3.4432 9.35233 2.16609 9.99141C0.640004 10.7535 0 11.8893 0 14.6022C0 15.5699 0 24.6129 0 26.163C0 28.7778 1.8403 31.4897 5.52183 31.4897H12.9791C16.6606 31.4897 18.5009 28.7778 18.5009 26.163C18.5009 24.6129 18.5009 15.57 18.5009 14.6022C18.5009 11.8894 17.8609 10.7535 16.3349 9.99141ZM15.4719 25.0146H3.02904V14.856H15.472V25.0146H15.4719Z" fill="#0041D6"/>
<path d="M8.18573 23.797H10.3143V21.2696H12.8407V19.1429H10.3143V16.6155H8.18573V19.1429H5.66022V21.2696H8.18573V23.797Z" fill="#0041D6"/>
</svg>
