<svg width="28" height="31" viewBox="0 0 28 31" fill="none" xmlns="http://www.w3.org/2000/svg">
<path d="M17.4109 26.1566C17.4109 24.4629 18.139 22.9401 19.293 21.8713C18.1923 21.4439 17.0049 20.8014 17.0049 19.9801C17.0049 19.4114 17.0049 18.7009 17.0049 17.7263C17.4223 16.5694 18.0495 16.4866 18.3631 14.711C19.0941 14.4498 19.5119 14.0319 20.0339 12.2041C20.4261 10.8282 19.8483 10.459 19.4743 10.3605C19.4819 10.2872 19.4896 10.2134 19.4957 10.1268C19.637 8.06623 20.8334 1.9497 16.6913 1.21871C15.5949 0.365912 14.8991 -0.0205207 12.5492 0.122289C11.0616 0.121812 9.93087 0.450202 8.35525 0C6.25278 1.76364 6.83046 7.55566 7.12461 10.35C6.75482 10.4328 6.11713 10.7764 6.52498 12.2041C7.04653 14.0319 7.46433 14.4498 8.19532 14.711C8.50898 16.4866 9.46313 17.0567 9.53263 17.7263C9.53263 18.7009 9.53263 19.4113 9.53263 19.9801C9.53263 20.8391 8.13114 21.5639 7.09419 21.9293C5.09969 22.6322 -0.456756 24.7128 0.030073 30.5424H19.4034C18.1846 29.4697 17.4109 27.9036 17.4109 26.1566Z" fill="#0041D6"/>
<path d="M23.2586 21.7709C20.8363 21.7709 18.8728 23.7344 18.8728 26.1566C18.8728 28.5788 20.8363 30.5424 23.2586 30.5424C25.6808 30.5424 27.6443 28.5788 27.6443 26.1566C27.6443 23.7344 25.6808 21.7709 23.2586 21.7709ZM25.6951 26.7657H23.8677V28.5932H22.6494V26.7657H20.822V25.5475H22.6494V23.7201H23.8677V25.5475H25.6951V26.7657Z" fill="#0041D6"/>
</svg>
