<svg width="31" height="31" viewBox="0 0 31 31" fill="none" xmlns="http://www.w3.org/2000/svg">
<path d="M15.4999 31C23.9641 31 31 23.9794 31 15.5C31 7.03579 23.949 0 15.4848 0C7.00532 0 0 7.03579 0 15.5C0 23.9794 7.02056 31 15.4999 31ZM15.4999 20.6819C10.9259 20.6819 7.40043 22.3078 5.86563 24.1314C3.82937 21.8519 2.59845 18.8279 2.59845 15.5C2.59845 8.34264 8.31223 2.58334 15.4848 2.58334C22.6421 2.58334 28.4014 8.34264 28.4167 15.5C28.4167 18.8432 27.1857 21.8671 25.1342 24.1465C23.5994 22.323 20.074 20.6819 15.4999 20.6819ZM15.4999 18.0985C18.4176 18.1289 20.7122 15.6367 20.7122 12.3696C20.7122 9.30001 18.4024 6.74708 15.4999 6.74708C12.5823 6.74708 10.2573 9.30001 10.2877 12.3696C10.3029 15.6367 12.5671 18.0681 15.4999 18.0985Z" fill="white"/>
</svg>
