<svg width="139" height="68" viewBox="0 0 139 68" fill="none" xmlns="http://www.w3.org/2000/svg">
<g filter="url(#filter0_d_151_448)">
<path d="M3.64062 28V2.54545H14.6278C16.517 2.54545 18.1701 2.91832 19.587 3.66406C21.0039 4.4098 22.1059 5.45798 22.8931 6.80859C23.6803 8.15921 24.0739 9.73769 24.0739 11.544C24.0739 13.367 23.6679 14.9454 22.8558 16.2795C22.0521 17.6135 20.921 18.641 19.4627 19.3619C18.0127 20.0827 16.3182 20.4432 14.3793 20.4432H7.81676V15.0739H12.9872C13.7992 15.0739 14.4911 14.933 15.0629 14.6513C15.6429 14.3613 16.0862 13.9511 16.3928 13.4208C16.7076 12.8905 16.8651 12.2649 16.8651 11.544C16.8651 10.8149 16.7076 10.1934 16.3928 9.67969C16.0862 9.15767 15.6429 8.75994 15.0629 8.4865C14.4911 8.20478 13.7992 8.06392 12.9872 8.06392H10.5511V28H3.64062ZM33.5696 17.2614V28H26.7088V2.54545H33.321V12.5384H33.5199C33.9508 11.3203 34.6675 10.3716 35.6701 9.69212C36.6727 9.00438 37.8783 8.66051 39.2869 8.66051C40.6375 8.66051 41.81 8.96709 42.8043 9.58025C43.8069 10.1934 44.5817 11.0386 45.1286 12.1158C45.6837 13.1929 45.9571 14.4276 45.9489 15.8196V28H39.0881V17.2614C39.0964 16.3168 38.8602 15.5752 38.3796 15.0366C37.9073 14.498 37.232 14.2287 36.3537 14.2287C35.7985 14.2287 35.3097 14.353 34.8871 14.6016C34.4728 14.8419 34.1496 15.1899 33.9176 15.6456C33.6939 16.093 33.5779 16.6316 33.5696 17.2614ZM54.6554 28.2983C53.4373 28.2983 52.3601 28.0994 51.4238 27.7017C50.4958 27.2957 49.7666 26.6825 49.2363 25.8622C48.706 25.0419 48.4409 23.9979 48.4409 22.7301C48.4409 21.6861 48.619 20.7953 48.9753 20.0579C49.3316 19.3121 49.8288 18.7031 50.4668 18.2308C51.1048 17.7585 51.8464 17.3981 52.6916 17.1495C53.545 16.9009 54.4648 16.7393 55.4508 16.6648C56.5197 16.5819 57.3773 16.4825 58.0236 16.3665C58.6782 16.2422 59.1505 16.0723 59.4405 15.8569C59.7305 15.6332 59.8755 15.339 59.8755 14.9744V14.9247C59.8755 14.4276 59.685 14.0464 59.3038 13.7812C58.9226 13.5161 58.4338 13.3835 57.8372 13.3835C57.1826 13.3835 56.6481 13.5285 56.2338 13.8185C55.8278 14.1003 55.5834 14.5353 55.5005 15.1236H49.1866C49.2695 13.9635 49.6382 12.8946 50.2928 11.9169C50.9557 10.9309 51.921 10.1437 53.1887 9.5554C54.4565 8.95881 56.0391 8.66051 57.9366 8.66051C59.3038 8.66051 60.5301 8.82209 61.6156 9.14524C62.7011 9.46011 63.6249 9.90341 64.3873 10.4751C65.1496 11.0386 65.7296 11.7015 66.1273 12.4638C66.5333 13.2178 66.7363 14.0381 66.7363 14.9247V28H60.323V25.3153H60.1738C59.7927 26.0279 59.3287 26.6038 58.7818 27.043C58.2432 27.4821 57.6259 27.8011 56.9299 28C56.2421 28.1989 55.484 28.2983 54.6554 28.2983ZM56.8926 23.973C57.4146 23.973 57.9035 23.8653 58.3592 23.6499C58.8232 23.4344 59.2002 23.1237 59.4902 22.7177C59.7802 22.3117 59.9252 21.8187 59.9252 21.2386V19.6477C59.743 19.7223 59.5482 19.7927 59.3411 19.859C59.1422 19.9253 58.9268 19.9875 58.6948 20.0455C58.4711 20.1035 58.2308 20.1573 57.9739 20.207C57.7253 20.2567 57.4643 20.3023 57.1909 20.3438C56.6606 20.4266 56.2256 20.5633 55.8858 20.7539C55.5544 20.9362 55.3058 21.1641 55.1401 21.4375C54.9827 21.7027 54.9039 22.0009 54.9039 22.3324C54.9039 22.8627 55.0904 23.2687 55.4632 23.5504C55.8361 23.8321 56.3126 23.973 56.8926 23.973ZM70.0145 28V8.90909H76.6764V12.5384H76.8753C77.2233 11.196 77.7743 10.2141 78.5283 9.59268C79.2906 8.97124 80.1814 8.66051 81.2006 8.66051C81.4988 8.66051 81.793 8.68537 82.083 8.73509C82.3813 8.77652 82.6672 8.83866 82.9406 8.92152V14.7756C82.6009 14.6596 82.1824 14.5726 81.6853 14.5146C81.1881 14.4566 80.7614 14.4276 80.4051 14.4276C79.7339 14.4276 79.1291 14.5808 78.5905 14.8874C78.0602 15.1857 77.6417 15.6083 77.3351 16.1552C77.0286 16.6938 76.8753 17.3277 76.8753 18.0568V28H70.0145ZM85.1903 28V8.90909H91.703V12.5384H91.9019C92.2996 11.3452 92.9791 10.4006 93.9403 9.70454C94.9014 9.00852 96.0449 8.66051 97.3707 8.66051C98.713 8.66051 99.8689 9.01681 100.838 9.7294C101.808 10.4337 102.392 11.37 102.591 12.5384H102.79C103.113 11.37 103.801 10.4337 104.853 9.7294C105.905 9.01681 107.14 8.66051 108.557 8.66051C110.388 8.66051 111.871 9.24882 113.006 10.4254C114.15 11.602 114.722 13.1681 114.722 15.1236V28H107.861V16.8636C107.861 16.0268 107.649 15.3722 107.227 14.8999C106.804 14.4193 106.237 14.179 105.524 14.179C104.82 14.179 104.26 14.4193 103.846 14.8999C103.44 15.3722 103.237 16.0268 103.237 16.8636V28H96.6746V16.8636C96.6746 16.0268 96.4633 15.3722 96.0407 14.8999C95.6182 14.4193 95.0506 14.179 94.338 14.179C93.8657 14.179 93.4597 14.2867 93.1199 14.5021C92.7802 14.7176 92.5151 15.0283 92.3245 15.4343C92.1422 15.832 92.051 16.3085 92.051 16.8636V28H85.1903ZM123.425 28.2983C122.207 28.2983 121.13 28.0994 120.193 27.7017C119.265 27.2957 118.536 26.6825 118.006 25.8622C117.476 25.0419 117.21 23.9979 117.21 22.7301C117.21 21.6861 117.389 20.7953 117.745 20.0579C118.101 19.3121 118.598 18.7031 119.236 18.2308C119.874 17.7585 120.616 17.3981 121.461 17.1495C122.315 16.9009 123.234 16.7393 124.22 16.6648C125.289 16.5819 126.147 16.4825 126.793 16.3665C127.448 16.2422 127.92 16.0723 128.21 15.8569C128.5 15.6332 128.645 15.339 128.645 14.9744V14.9247C128.645 14.4276 128.454 14.0464 128.073 13.7812C127.692 13.5161 127.203 13.3835 126.607 13.3835C125.952 13.3835 125.418 13.5285 125.003 13.8185C124.597 14.1003 124.353 14.5353 124.27 15.1236H117.956C118.039 13.9635 118.408 12.8946 119.062 11.9169C119.725 10.9309 120.691 10.1437 121.958 9.5554C123.226 8.95881 124.809 8.66051 126.706 8.66051C128.073 8.66051 129.3 8.82209 130.385 9.14524C131.471 9.46011 132.394 9.90341 133.157 10.4751C133.919 11.0386 134.499 11.7015 134.897 12.4638C135.303 13.2178 135.506 14.0381 135.506 14.9247V28H129.093V25.3153H128.943C128.562 26.0279 128.098 26.6038 127.551 27.043C127.013 27.4821 126.395 27.8011 125.699 28C125.012 28.1989 124.253 28.2983 123.425 28.2983ZM125.662 23.973C126.184 23.973 126.673 23.8653 127.129 23.6499C127.593 23.4344 127.97 23.1237 128.26 22.7177C128.55 22.3117 128.695 21.8187 128.695 21.2386V19.6477C128.512 19.7223 128.318 19.7927 128.111 19.859C127.912 19.9253 127.696 19.9875 127.464 20.0455C127.241 20.1035 127 20.1573 126.743 20.207C126.495 20.2567 126.234 20.3023 125.96 20.3438C125.43 20.4266 124.995 20.5633 124.655 20.7539C124.324 20.9362 124.075 21.1641 123.91 21.4375C123.752 21.7027 123.673 22.0009 123.673 22.3324C123.673 22.8627 123.86 23.2687 124.233 23.5504C124.606 23.8321 125.082 23.973 125.662 23.973ZM7.1456 32.5455H12.7884L17.3001 50.9901H17.5984L28.2003 32.5455H33.843L29.6172 58H25.1925L28.1009 40.5124H27.8771L17.9339 57.9254H14.6403L10.5138 40.4751H10.2777L7.34446 58H2.91974L7.1456 32.5455ZM39.8835 58.3853C38.6738 58.3853 37.6214 58.1699 36.7266 57.739C35.8317 57.2998 35.1729 56.6535 34.7504 55.8001C34.3361 54.9466 34.2325 53.8943 34.4396 52.6431C34.6219 51.5659 34.9699 50.6752 35.4837 49.9709C36.0057 49.2666 36.6437 48.7031 37.3977 48.2805C38.16 47.8497 38.9886 47.5265 39.8835 47.3111C40.7867 47.0956 41.7064 46.9382 42.6428 46.8388C43.7862 46.7228 44.7101 46.6151 45.4144 46.5156C46.127 46.4162 46.6615 46.267 47.0178 46.0682C47.3741 45.861 47.5895 45.5462 47.6641 45.1236V45.049C47.8132 44.1127 47.6641 43.3877 47.2166 42.8739C46.7692 42.3602 46.0234 42.1033 44.9794 42.1033C43.8857 42.1033 42.9659 42.3436 42.2202 42.8242C41.4744 43.3048 40.9317 43.8724 40.592 44.527L36.5153 43.9304C37.029 42.7704 37.7333 41.8009 38.6282 41.022C39.5231 40.2348 40.5547 39.6465 41.723 39.2571C42.8996 38.8594 44.1549 38.6605 45.489 38.6605C46.4005 38.6605 47.2912 38.7682 48.1612 38.9837C49.0395 39.1991 49.8143 39.5554 50.4854 40.0526C51.1649 40.5414 51.6621 41.2085 51.9769 42.0536C52.3001 42.8988 52.3539 43.9553 52.1385 45.223L50.0131 58H45.6879L46.1353 55.3775H45.9862C45.6299 55.9078 45.1658 56.4049 44.5941 56.869C44.0224 57.3247 43.3429 57.6934 42.5558 57.9751C41.7686 58.2486 40.8778 58.3853 39.8835 58.3853ZM41.5863 55.0792C42.4895 55.0792 43.3015 54.901 44.0224 54.5447C44.7433 54.1802 45.3357 53.6996 45.7997 53.103C46.2637 52.5064 46.5537 51.8559 46.6697 51.1516L47.0426 48.902C46.8769 49.018 46.62 49.1257 46.272 49.2251C45.924 49.3246 45.5346 49.4116 45.1037 49.4862C44.6811 49.5607 44.2627 49.627 43.8484 49.685C43.4341 49.743 43.0778 49.7927 42.7795 49.8342C42.0917 49.9253 41.462 50.0745 40.8903 50.2816C40.3268 50.4888 39.8587 50.7788 39.4858 51.1516C39.1212 51.5162 38.8933 51.9885 38.8022 52.5685C38.6696 53.3888 38.8643 54.0144 39.3864 54.4453C39.9084 54.8679 40.6417 55.0792 41.5863 55.0792ZM60.9009 46.8139L59.0614 58H54.5497L57.7315 38.9091H62.0444L61.4975 42.1531H61.7337C62.3303 41.0842 63.1671 40.2348 64.2443 39.6051C65.3215 38.9754 66.5768 38.6605 68.0103 38.6605C69.3112 38.6605 70.4049 38.9422 71.2915 39.5057C72.1781 40.0608 72.8079 40.877 73.1808 41.9542C73.5536 43.0231 73.6116 44.3198 73.3548 45.8445L71.3164 58H66.8171L68.7188 46.5405C68.9342 45.2727 68.7726 44.2784 68.234 43.5575C67.7037 42.8284 66.8503 42.4638 65.6737 42.4638C64.8865 42.4638 64.1615 42.6378 63.4986 42.9858C62.8357 43.3255 62.2764 43.8185 61.8207 44.4648C61.3732 45.1112 61.0666 45.8942 60.9009 46.8139ZM81.3093 58.3853C80.0996 58.3853 79.0472 58.1699 78.1523 57.739C77.2575 57.2998 76.5987 56.6535 76.1761 55.8001C75.7618 54.9466 75.6583 53.8943 75.8654 52.6431C76.0477 51.5659 76.3957 50.6752 76.9094 49.9709C77.4315 49.2666 78.0695 48.7031 78.8235 48.2805C79.5858 47.8497 80.4144 47.5265 81.3093 47.3111C82.2125 47.0956 83.1322 46.9382 84.0685 46.8388C85.212 46.7228 86.1359 46.6151 86.8402 46.5156C87.5528 46.4162 88.0872 46.267 88.4435 46.0682C88.7998 45.861 89.0153 45.5462 89.0898 45.1236V45.049C89.239 44.1127 89.0898 43.3877 88.6424 42.8739C88.195 42.3602 87.4492 42.1033 86.4052 42.1033C85.3114 42.1033 84.3917 42.3436 83.646 42.8242C82.9002 43.3048 82.3575 43.8724 82.0178 44.527L77.9411 43.9304C78.4548 42.7704 79.1591 41.8009 80.054 41.022C80.9489 40.2348 81.9805 39.6465 83.1488 39.2571C84.3254 38.8594 85.5807 38.6605 86.9148 38.6605C87.8262 38.6605 88.717 38.7682 89.587 38.9837C90.4653 39.1991 91.2401 39.5554 91.9112 40.0526C92.5907 40.5414 93.0878 41.2085 93.4027 42.0536C93.7259 42.8988 93.7797 43.9553 93.5643 45.223L91.4389 58H87.1136L87.5611 55.3775H87.4119C87.0556 55.9078 86.5916 56.4049 86.0199 56.869C85.4482 57.3247 84.7687 57.6934 83.9815 57.9751C83.1944 58.2486 82.3036 58.3853 81.3093 58.3853ZM83.0121 55.0792C83.9152 55.0792 84.7273 54.901 85.4482 54.5447C86.169 54.1802 86.7615 53.6996 87.2255 53.103C87.6895 52.5064 87.9795 51.8559 88.0955 51.1516L88.4684 48.902C88.3027 49.018 88.0458 49.1257 87.6978 49.2251C87.3498 49.3246 86.9603 49.4116 86.5295 49.4862C86.1069 49.5607 85.6884 49.627 85.2741 49.685C84.8598 49.743 84.5036 49.7927 84.2053 49.8342C83.5175 49.9253 82.8878 50.0745 82.3161 50.2816C81.7526 50.4888 81.2844 50.7788 80.9116 51.1516C80.547 51.5162 80.3191 51.9885 80.228 52.5685C80.0954 53.3888 80.2901 54.0144 80.8121 54.4453C81.3342 54.8679 82.0675 55.0792 83.0121 55.0792ZM103.072 65.5568C101.448 65.5568 100.094 65.3372 99.0082 64.8981C97.9227 64.4672 97.0858 63.8872 96.4975 63.158C95.9092 62.4289 95.5446 61.621 95.4038 60.7344L99.6296 59.7525C99.7539 60.1254 99.9528 60.4941 100.226 60.8587C100.508 61.2315 100.922 61.5381 101.469 61.7784C102.016 62.027 102.745 62.1513 103.657 62.1513C104.933 62.1513 106.047 61.8406 107 61.2191C107.953 60.5977 108.541 59.5868 108.765 58.1864L109.337 54.5696H109.113C108.815 55.0336 108.404 55.5101 107.882 55.9989C107.369 56.4878 106.718 56.898 105.931 57.2294C105.152 57.5608 104.216 57.7266 103.122 57.7266C101.656 57.7266 100.384 57.3827 99.3065 56.695C98.2293 55.9989 97.4545 54.9632 96.9822 53.5877C96.5182 52.204 96.4602 50.4722 96.8082 48.3924C97.148 46.296 97.786 44.527 98.7223 43.0852C99.6669 41.6352 100.798 40.5373 102.115 39.7915C103.433 39.0375 104.825 38.6605 106.292 38.6605C107.41 38.6605 108.301 38.8511 108.964 39.2322C109.627 39.6051 110.128 40.0567 110.468 40.587C110.807 41.109 111.056 41.602 111.213 42.0661H111.45L111.972 38.9091H116.409L113.202 58.3107C112.937 59.9431 112.328 61.2937 111.375 62.3626C110.422 63.4397 109.225 64.2393 107.783 64.7614C106.35 65.2917 104.779 65.5568 103.072 65.5568ZM104.912 54.1967C105.865 54.1967 106.718 53.9647 107.472 53.5007C108.226 53.0367 108.856 52.3697 109.362 51.4996C109.867 50.6296 110.219 49.5856 110.418 48.3675C110.617 47.1661 110.609 46.1138 110.393 45.2106C110.186 44.3074 109.784 43.6072 109.188 43.1101C108.591 42.6046 107.812 42.3519 106.851 42.3519C105.848 42.3519 104.97 42.6129 104.216 43.1349C103.47 43.657 102.857 44.3737 102.376 45.2852C101.904 46.1883 101.573 47.2158 101.382 48.3675C101.2 49.5359 101.2 50.5592 101.382 51.4375C101.573 52.3075 101.958 52.987 102.538 53.4759C103.126 53.9564 103.918 54.1967 104.912 54.1967ZM126.24 58.3729C124.326 58.3729 122.743 57.9751 121.492 57.1797C120.241 56.3759 119.363 55.2408 118.857 53.7741C118.36 52.2992 118.277 50.5633 118.609 48.5664C118.932 46.6026 119.591 44.8791 120.585 43.396C121.579 41.9045 122.822 40.7444 124.314 39.9158C125.813 39.079 127.471 38.6605 129.285 38.6605C130.462 38.6605 131.543 38.8511 132.529 39.2322C133.515 39.6051 134.348 40.1851 135.027 40.9723C135.707 41.7595 136.175 42.7621 136.432 43.9801C136.689 45.1899 136.676 46.6316 136.395 48.3054L136.183 49.685H120.523L121.007 46.6523H132.343C132.492 45.7906 132.442 45.0241 132.194 44.353C131.945 43.6735 131.531 43.1391 130.951 42.7496C130.371 42.3602 129.646 42.1655 128.776 42.1655C127.889 42.1655 127.06 42.3933 126.29 42.8491C125.527 43.2965 124.885 43.8765 124.363 44.5891C123.841 45.3017 123.51 46.0516 123.369 46.8388L122.859 49.7472C122.677 50.9403 122.719 51.9139 122.984 52.668C123.249 53.422 123.713 53.9772 124.376 54.3335C125.039 54.6897 125.875 54.8679 126.886 54.8679C127.549 54.8679 128.162 54.7768 128.726 54.5945C129.289 54.4122 129.791 54.1387 130.23 53.7741C130.677 53.4013 131.05 52.9455 131.348 52.407L135.462 52.8793C135.007 53.9896 134.34 54.959 133.461 55.7876C132.583 56.608 131.531 57.246 130.304 57.7017C129.086 58.1491 127.732 58.3729 126.24 58.3729Z" fill="white"/>
</g>
<defs>
<filter id="filter0_d_151_448" x="0.919743" y="0.545452" width="137.897" height="67.0114" filterUnits="userSpaceOnUse" color-interpolation-filters="sRGB">
<feFlood flood-opacity="0" result="BackgroundImageFix"/>
<feColorMatrix in="SourceAlpha" type="matrix" values="0 0 0 0 0 0 0 0 0 0 0 0 0 0 0 0 0 0 127 0" result="hardAlpha"/>
<feOffset/>
<feGaussianBlur stdDeviation="1"/>
<feComposite in2="hardAlpha" operator="out"/>
<feColorMatrix type="matrix" values="0 0 0 0 0 0 0 0 0 0 0 0 0 0 0 0 0 0 0.25 0"/>
<feBlend mode="normal" in2="BackgroundImageFix" result="effect1_dropShadow_151_448"/>
<feBlend mode="normal" in="SourceGraphic" in2="effect1_dropShadow_151_448" result="shape"/>
</filter>
</defs>
</svg>
