<svg width="26" height="30" viewBox="0 0 26 30" fill="none" xmlns="http://www.w3.org/2000/svg">
<path d="M18.7497 0V4.6698C18.7497 6.19687 19.8206 7.50035 21.2425 7.50035L25.3121 7.49988V27.1875C25.3121 28.7408 24.0529 30 22.4996 30H2.81246C1.25918 30 0 28.7408 0 27.1875V2.81293C0 1.25965 1.25918 0.000472061 2.81246 0.000472061L18.7497 0ZM20.9426 0.468042L24.676 3.7543C25.0804 4.11026 25.3121 4.62296 25.3121 5.16169V5.62491L21.2425 5.62538C20.9464 5.62538 20.6247 5.23375 20.6247 4.6698L20.6256 0.24274C20.7381 0.306224 20.8444 0.381572 20.9426 0.468042Z" fill="#0041D6"/>
</svg>
